<?xml version="1.0" standalone="no"?>
<!DOCTYPE svg PUBLIC "-//W3C//DTD SVG 20010904//EN"
 "http://www.w3.org/TR/2001/REC-SVG-20010904/DTD/svg10.dtd">
<svg version="1.0" xmlns="http://www.w3.org/2000/svg"
 width="1124.000000pt" height="257.000000pt" viewBox="0 0 1124.000000 257.000000"
 preserveAspectRatio="xMidYMid meet">
<metadata>
Created by potrace 1.15, written by Peter Selinger 2001-2017
</metadata>
<g transform="translate(0.000000,257.000000) scale(0.100000,-0.100000)"
fill="#000000" stroke="none">
<path d="M5982 2554 c-48 -33 -144 -199 -178 -307 -16 -51 -17 -66 -6 -130 21
-121 97 -258 163 -292 45 -24 125 -19 175 10 54 32 124 111 160 183 92 181
-21 484 -199 537 -64 19 -87 19 -115 -1z"/>
<path d="M7530 2540 c-122 -42 -141 -123 -90 -376 10 -50 26 -144 35 -210 9
-65 40 -263 70 -439 30 -176 59 -385 65 -465 34 -462 66 -625 152 -767 44 -74
143 -164 220 -202 124 -61 200 -74 423 -74 110 0 245 5 300 12 311 39 512 169
571 367 22 72 24 226 5 304 -84 348 -501 615 -1046 671 -120 12 -210 7 -276
-16 -23 -8 -66 -18 -95 -21 l-52 -7 -11 39 c-22 74 -61 351 -95 674 -20 179
-41 371 -47 428 l-13 102 -30 0 c-17 -1 -56 -9 -86 -20z m775 -1425 c343 -55
619 -213 715 -409 46 -93 51 -160 17 -218 -77 -132 -248 -227 -444 -246 -361
-35 -682 150 -732 422 -15 82 9 271 45 343 55 114 170 145 399 108z"/>
<path d="M3005 1896 c-42 -19 -69 -52 -102 -121 -28 -59 -28 -62 -27 -250 1
-200 12 -317 45 -478 40 -197 136 -440 227 -574 161 -237 390 -353 618 -314
115 20 172 58 340 226 83 82 164 158 181 167 29 17 31 16 66 -7 54 -37 103
-144 127 -280 26 -140 35 -167 70 -205 26 -28 32 -30 104 -30 154 0 154 42 -4
451 -107 276 -108 279 -120 559 -6 135 -16 285 -21 335 -20 165 -65 302 -108
325 -38 20 -89 12 -123 -19 l-33 -29 -5 -354 c-6 -408 -3 -393 -112 -559 -122
-186 -317 -349 -418 -349 -165 0 -331 141 -451 381 -128 256 -193 610 -154
829 9 52 19 129 22 171 5 69 3 78 -19 102 -29 33 -64 41 -103 23z"/>
<path d="M9965 1829 c-241 -33 -444 -148 -510 -291 -43 -93 -29 -247 33 -361
43 -81 132 -162 226 -207 134 -65 267 -93 644 -135 326 -36 436 -67 528 -147
53 -46 74 -99 74 -183 0 -54 -5 -79 -23 -110 -31 -55 -96 -101 -180 -127 -68
-22 -88 -23 -382 -23 -236 0 -322 3 -360 14 -93 26 -317 130 -363 168 -95 79
-123 93 -185 93 -51 0 -117 -20 -117 -36 0 -13 56 -114 88 -158 70 -96 215
-194 357 -241 168 -56 386 -78 715 -73 l255 4 98 33 c186 64 324 185 363 318
22 77 15 225 -16 306 -25 67 -105 159 -179 206 -103 67 -280 113 -531 140
-392 43 -468 53 -542 71 -104 27 -187 70 -237 125 -44 48 -61 95 -61 172 0 46
4 58 34 91 119 132 455 182 671 101 62 -23 109 -59 136 -102 17 -28 17 -31 -3
-76 -29 -65 -29 -145 0 -173 28 -28 82 -29 119 -2 16 11 38 40 51 65 21 39 23
55 20 139 -3 80 -8 105 -31 152 -51 104 -182 194 -338 232 -83 20 -261 28
-354 15z"/>
<path d="M2175 1813 c-65 -9 -183 -47 -346 -112 l-170 -69 -50 21 c-57 24 -74
19 -99 -29 -33 -63 -6 -429 55 -746 61 -313 192 -723 271 -845 24 -38 69 -31
120 21 41 40 44 47 44 96 0 90 -38 247 -121 495 -92 274 -116 371 -125 505 -9
137 8 233 50 287 46 59 97 98 164 125 47 18 76 22 162 22 95 -1 126 -6 322
-57 138 -36 237 -57 273 -57 l55 0 0 52 c0 70 -30 128 -91 177 -102 81 -350
136 -514 114z"/>
<path d="M660 1760 c-292 -77 -543 -334 -632 -645 -20 -71 -23 -101 -22 -260
1 -209 16 -281 86 -425 34 -69 59 -102 133 -175 98 -99 172 -144 305 -188 283
-94 861 -84 1035 18 67 39 83 108 32 137 -16 9 -112 13 -352 13 -349 1 -416 7
-580 56 -209 63 -351 193 -408 374 -32 102 -31 307 1 420 51 175 135 302 260
392 115 82 163 97 317 97 128 1 132 0 197 -32 112 -55 180 -162 202 -316 l12
-80 23 23 c27 27 46 70 72 161 37 127 21 214 -53 295 -89 98 -221 145 -423
151 -107 3 -143 1 -205 -16z"/>
<path d="M6682 1680 c-73 -26 -185 -85 -255 -132 -70 -48 -239 -193 -317 -272
-30 -31 -59 -56 -65 -56 -6 0 -35 34 -65 76 -109 152 -240 245 -394 279 -55
12 -111 16 -222 13 -175 -4 -196 -11 -312 -108 -61 -51 -72 -58 -72 -40 0 29
-26 76 -52 94 -28 20 -98 21 -124 2 -18 -13 -19 -27 -17 -198 1 -101 9 -282
18 -403 9 -121 18 -320 20 -442 5 -248 17 -303 79 -371 26 -28 41 -35 82 -39
39 -4 54 -1 74 15 24 19 25 25 28 153 2 80 -3 189 -13 278 -22 196 -23 377 -2
464 37 150 128 271 246 330 59 29 74 32 156 32 119 0 173 -24 254 -111 108
-115 156 -222 256 -569 98 -341 156 -445 250 -445 51 0 82 32 95 96 16 75 4
139 -55 295 -57 150 -67 227 -40 325 23 87 93 192 186 280 89 84 171 135 276
174 109 39 177 46 249 25 157 -45 312 -317 369 -644 19 -104 19 -182 1 -341
-38 -332 -31 -421 33 -435 108 -23 171 69 206 300 19 128 19 372 0 500 -61
405 -246 725 -489 846 l-89 44 -121 2 c-99 2 -131 -1 -174 -17z"/>
</g>
</svg>
